<svg xmlns="http://www.w3.org/2000/svg" width="24" height="24" viewBox="0 0 24 24" fill="none">
  <path d="M2.85718 7.42855H21.1429M5.14289 2.85712H18.8572C19.4634 2.85712 20.0448 3.09793 20.4734 3.52659C20.9021 3.95524 21.1429 4.53662 21.1429 5.14283V18.8571C21.1429 19.4633 20.9021 20.0447 20.4734 20.4734C20.0448 20.902 19.4634 21.1428 18.8572 21.1428H5.14289C4.53668 21.1428 3.9553 20.902 3.52665 20.4734C3.09799 20.0447 2.85718 19.4633 2.85718 18.8571V5.14283C2.85718 4.53662 3.09799 3.95524 3.52665 3.52659C3.9553 3.09793 4.53668 2.85712 5.14289 2.85712V2.85712Z" stroke="#287D5F" stroke-linecap="round" stroke-linejoin="round"/>
  <path d="M12 13.1428C12.6312 13.1428 13.1429 12.6312 13.1429 12C13.1429 11.3688 12.6312 10.8571 12 10.8571C11.3689 10.8571 10.8572 11.3688 10.8572 12C10.8572 12.6312 11.3689 13.1428 12 13.1428Z" fill="#287D5F"/>
  <path d="M7.42862 13.1428C8.05981 13.1428 8.57148 12.6312 8.57148 12C8.57148 11.3688 8.05981 10.8571 7.42862 10.8571C6.79744 10.8571 6.28577 11.3688 6.28577 12C6.28577 12.6312 6.79744 13.1428 7.42862 13.1428Z" fill="#287D5F"/>
  <path d="M16.5714 13.1428C17.2026 13.1428 17.7143 12.6312 17.7143 12C17.7143 11.3688 17.2026 10.8571 16.5714 10.8571C15.9403 10.8571 15.4286 11.3688 15.4286 12C15.4286 12.6312 15.9403 13.1428 16.5714 13.1428Z" fill="#287D5F"/>
  <path d="M12 17.7142C12.6312 17.7142 13.1429 17.2026 13.1429 16.5714C13.1429 15.9402 12.6312 15.4285 12 15.4285C11.3689 15.4285 10.8572 15.9402 10.8572 16.5714C10.8572 17.2026 11.3689 17.7142 12 17.7142Z" fill="#287D5F"/>
  <path d="M7.42862 17.7142C8.05981 17.7142 8.57148 17.2026 8.57148 16.5714C8.57148 15.9402 8.05981 15.4285 7.42862 15.4285C6.79744 15.4285 6.28577 15.9402 6.28577 16.5714C6.28577 17.2026 6.79744 17.7142 7.42862 17.7142Z" fill="#287D5F"/>
  <path d="M16.5714 17.7142C17.2026 17.7142 17.7143 17.2026 17.7143 16.5714C17.7143 15.9402 17.2026 15.4285 16.5714 15.4285C15.9403 15.4285 15.4286 15.9402 15.4286 16.5714C15.4286 17.2026 15.9403 17.7142 16.5714 17.7142Z" fill="#287D5F"/>
</svg>